<svg width="28" height="28" viewBox="0 0 28 28" fill="none" xmlns="http://www.w3.org/2000/svg">
<path fill-rule="evenodd" clip-rule="evenodd" d="M10.42 8.112C14.26 3.17733 20.26 0 27 0C27.2652 0 27.5196 0.105357 27.7071 0.292893C27.8946 0.48043 28 0.734784 28 1C28 7.74133 24.8227 13.74 19.888 17.5813C20.0932 18.867 20.0171 20.1819 19.6648 21.4352C19.3125 22.6886 18.6925 23.8506 17.8475 24.8411C17.0026 25.8316 15.9528 26.6269 14.7706 27.1723C13.5884 27.7177 12.3019 28.0001 11 28C10.7348 28 10.4804 27.8946 10.2929 27.7071C10.1054 27.5196 10 27.2652 10 27V21.492C8.7039 20.4685 7.53234 19.2965 6.50933 18H1C0.734784 18 0.48043 17.8946 0.292893 17.7071C0.105357 17.5196 2.94643e-08 17.2652 2.94643e-08 17C-0.000105323 15.6979 0.282313 14.4114 0.827765 13.2291C1.37322 12.0467 2.16871 10.9969 3.15935 10.1519C4.14998 9.30689 5.31217 8.68692 6.5657 8.33474C7.81923 7.98256 9.13425 7.90656 10.42 8.112ZM18 7C17.2044 7 16.4413 7.31607 15.8787 7.87868C15.3161 8.44129 15 9.20435 15 10C15 10.7956 15.3161 11.5587 15.8787 12.1213C16.4413 12.6839 17.2044 13 18 13C18.7957 13 19.5587 12.6839 20.1213 12.1213C20.6839 11.5587 21 10.7956 21 10C21 9.20435 20.6839 8.44129 20.1213 7.87868C19.5587 7.31607 18.7957 7 18 7Z" fill="#5E44FF"/>
</svg>
